<?xml version="1.0" standalone="no"?>
<!DOCTYPE svg PUBLIC "-//W3C//DTD SVG 20010904//EN"
 "http://www.w3.org/TR/2001/REC-SVG-20010904/DTD/svg10.dtd">
<svg version="1.0" xmlns="http://www.w3.org/2000/svg"
 width="512.000000pt" height="512.000000pt" viewBox="0 0 512.000000 512.000000"
 preserveAspectRatio="xMidYMid meet">

<g transform="translate(0.000000,512.000000) scale(0.100000,-0.100000)"
fill="#000000" stroke="none">
<path d="M95 5106 c-94 -41 -124 -168 -58 -247 53 -62 -18 -59 1283 -59 l1190
0 0 -277 -1 -278 -77 -37 c-47 -22 -98 -56 -128 -85 -27 -26 -243 -259 -479
-518 l-430 -469 -13 46 c-17 60 -74 113 -131 123 -53 9 -126 -25 -158 -74 -22
-33 -23 -41 -23 -296 0 -255 1 -263 23 -295 12 -18 35 -43 50 -54 27 -20 40
-21 297 -21 257 0 270 1 297 21 97 72 98 195 1 267 -14 11 -51 22 -82 26 l-56
6 284 310 c156 170 288 311 293 312 4 2 19 -17 32 -42 115 -217 414 -322 654
-230 16 7 17 -13 17 -333 l0 -340 -167 -4 c-160 -3 -171 -5 -231 -32 -79 -37
-162 -123 -190 -198 -30 -81 -215 -1182 -208 -1240 6 -60 34 -113 83 -160 73
-71 83 -73 416 -76 l297 -3 0 -150 0 -150 -27 14 c-73 37 -139 28 -192 -27
-40 -41 -54 -96 -40 -151 9 -33 42 -71 177 -207 180 -179 195 -189 280 -173
31 5 64 33 204 173 183 184 200 211 179 290 -28 101 -135 145 -233 95 l-28
-14 0 150 0 150 298 3 c277 3 300 4 342 24 84 39 146 123 156 212 7 58 -178
1159 -208 1239 -27 75 -104 155 -186 195 -66 33 -68 33 -234 37 l-167 3 -3
642 -3 641 -25 65 c-55 139 -136 230 -266 297 l-74 38 0 277 0 278 1094 2
c1088 3 1095 3 1122 24 53 39 69 71 69 134 0 63 -16 95 -69 134 l-27 21 -2447
2 c-2019 2 -2452 0 -2477 -11z m2674 -1185 c35 -19 90 -91 101 -133 42 -154
-105 -300 -259 -258 -50 13 -119 72 -138 117 -30 72 -12 173 41 231 57 64 178
84 255 43z m705 -1696 c8 -9 18 -31 22 -49 3 -19 43 -249 88 -513 l82 -478
-620 -3 c-340 -1 -622 0 -624 3 -3 3 33 236 81 518 68 397 91 515 104 525 13
9 116 12 434 12 362 0 420 -2 433 -15z"/>
</g>
</svg>
