<?xml version="1.0" standalone="no"?>
<!DOCTYPE svg PUBLIC "-//W3C//DTD SVG 20010904//EN"
 "http://www.w3.org/TR/2001/REC-SVG-20010904/DTD/svg10.dtd">
<svg version="1.0" xmlns="http://www.w3.org/2000/svg"
 width="512.000000pt" height="512.000000pt" viewBox="0 0 512.000000 512.000000"
 preserveAspectRatio="xMidYMid meet">

<g transform="translate(0.000000,512.000000) scale(0.100000,-0.100000)"
fill="#000000" stroke="none">
<path d="M3194 5108 c-25 -12 -26 -14 -138 -275 -47 -111 -86 -211 -86 -223 0
-28 43 -70 73 -70 14 0 34 8 46 18 24 20 211 452 211 488 0 29 -41 74 -67 73
-10 0 -27 -5 -39 -11z"/>
<path d="M2539 4968 c-15 -5 -32 -22 -39 -38 -11 -26 -5 -53 54 -252 37 -123
72 -236 78 -251 30 -76 138 -56 138 26 0 28 -128 470 -144 495 -11 18 -60 29
-87 20z"/>
<path d="M4075 4730 c-32 -6 -75 -15 -95 -21 -106 -34 -2347 -852 -2357 -861
-7 -5 -16 -28 -20 -50 -8 -40 -8 -40 -99 -73 -88 -32 -91 -32 -103 -14 -31 52
-95 39 -306 -60 -533 -251 -919 -738 -1049 -1322 -96 -436 -41 -862 164 -1274
276 -552 790 -924 1425 -1031 137 -24 433 -23 570 0 336 57 622 179 880 374
201 152 495 504 495 592 0 39 -40 72 -81 68 -35 -3 -38 -6 -147 -162 -79 -113
-166 -210 -267 -298 -84 -74 -241 -186 -311 -221 l-30 -16 -89 67 c-48 36
-133 109 -188 162 l-100 96 124 61 c376 189 623 510 710 926 28 134 30 341 4
477 -87 464 -403 837 -846 1000 -144 53 -265 73 -446 74 -90 1 -163 3 -163 7
0 11 69 206 95 268 33 79 119 252 150 300 19 30 36 41 104 65 46 16 86 25 90
20 4 -5 23 -52 41 -104 62 -178 108 -243 206 -291 41 -20 64 -24 139 -24 l90
0 365 133 c201 74 384 145 406 158 96 55 156 163 156 277 0 60 -8 92 -46 196
-25 69 -46 129 -46 135 0 6 125 56 277 111 271 97 280 100 378 103 118 5 192
-11 292 -61 81 -39 187 -136 231 -210 34 -56 247 -626 273 -727 18 -73 15
-213 -6 -286 -36 -125 -111 -236 -205 -308 -32 -23 -288 -161 -570 -306 -336
-173 -517 -271 -527 -286 -14 -22 -13 -34 7 -136 16 -80 24 -164 27 -288 7
-232 -9 -346 -89 -628 -15 -54 2 -92 46 -103 53 -15 78 7 109 96 87 248 115
582 71 862 -8 51 -14 99 -14 107 0 8 196 114 473 256 259 134 497 260 528 281
128 87 239 242 290 409 31 98 33 292 5 384 -31 105 -234 652 -259 703 -92 181
-283 332 -477 378 -85 20 -210 26 -285 15z m-1978 -1670 c462 -75 830 -416
944 -874 29 -114 36 -322 15 -446 -39 -239 -143 -446 -310 -618 -227 -234
-505 -352 -831 -352 -483 0 -908 298 -1081 757 -62 165 -83 422 -49 599 90
470 436 824 905 924 97 21 307 26 407 10z"/>
<path d="M2421 2479 c-57 -22 -63 -62 -23 -159 21 -50 33 -67 55 -74 38 -14
79 3 96 38 12 26 11 36 -15 104 -24 63 -34 78 -59 88 -20 8 -38 9 -54 3z"/>
<path d="M1800 2214 c-81 -35 -124 -107 -124 -204 0 -242 317 -326 408 -108
20 46 21 138 2 182 -20 48 -75 107 -121 127 -48 22 -118 24 -165 3z"/>
<path d="M1153 2015 c-34 -24 -36 -57 -7 -135 21 -55 33 -74 56 -86 50 -26
108 9 108 65 0 34 -51 151 -71 161 -26 14 -61 12 -86 -5z"/>
<path d="M1885 4705 c-27 -26 -31 -54 -15 -85 10 -18 352 -250 422 -286 75
-39 146 57 85 115 -47 43 -422 281 -445 281 -13 0 -34 -11 -47 -25z"/>
</g>
</svg>
