<?xml version="1.0" standalone="no"?>
<!DOCTYPE svg PUBLIC "-//W3C//DTD SVG 20010904//EN"
 "http://www.w3.org/TR/2001/REC-SVG-20010904/DTD/svg10.dtd">
<svg version="1.0" xmlns="http://www.w3.org/2000/svg"
 width="512.000000pt" height="512.000000pt" viewBox="0 0 512.000000 512.000000"
 preserveAspectRatio="xMidYMid meet">

<g transform="translate(0.000000,512.000000) scale(0.100000,-0.100000)"
fill="#000000" stroke="none">
<path d="M1915 4982 c-1005 -363 -1727 -632 -1765 -657 -97 -67 -159 -204
-147 -325 5 -44 68 -242 83 -259 4 -4 144 40 144 44 0 1 -16 45 -35 96 -19 52
-38 110 -41 129 -9 58 13 120 60 165 39 39 80 55 927 363 667 242 898 322 931
322 59 0 126 -36 160 -86 15 -22 141 -356 288 -760 l262 -721 -56 -53 c-91
-86 -97 -104 -178 -565 l-72 -410 -60 -85 c-33 -47 -85 -110 -116 -141 -92
-93 -240 -148 -368 -136 -116 10 -875 178 -940 208 -75 34 -177 127 -215 197
-15 27 -130 332 -256 678 -126 346 -232 636 -236 645 -6 15 -13 14 -73 -9 -37
-14 -68 -27 -70 -28 -8 -5 463 -1285 496 -1349 42 -81 161 -207 234 -247 90
-50 163 -69 585 -159 349 -73 438 -89 511 -89 144 0 274 44 390 133 34 26 62
45 62 43 0 -3 -23 -133 -51 -288 -56 -315 -63 -419 -34 -528 23 -88 85 -204
143 -267 26 -29 190 -180 365 -337 341 -305 397 -345 536 -381 81 -21 236 -21
315 0 79 21 784 336 849 379 106 71 201 191 246 311 11 29 29 105 40 171 12
65 24 129 26 140 4 18 -1 23 -31 29 l-36 6 6 52 c13 96 14 98 55 91 l36 -6
119 673 c92 519 117 684 113 725 -8 78 -51 166 -107 218 -62 58 -108 80 -205
100 -246 48 -1792 316 -1829 316 l-43 0 -263 723 c-145 397 -274 744 -287 770
-31 62 -89 119 -155 153 -44 23 -69 28 -143 31 -79 3 -99 0 -170 -25z"/>
<path d="M3105 4548 c-19 -85 -23 -114 -17 -119 4 -3 30 -14 57 -24 82 -30
160 -91 215 -171 94 -134 93 -353 -1 -490 l-29 -43 56 -47 56 -48 24 29 c72
90 116 222 116 351 1 138 -39 257 -125 369 -74 97 -208 187 -314 210 -28 6
-33 4 -38 -17z"/>
<path d="M4243 4430 c-25 -133 -132 -235 -268 -255 l-45 -7 0 -73 0 -72 48 -7
c137 -18 249 -131 268 -270 l7 -46 72 0 72 0 7 46 c19 139 131 252 268 270
l48 7 0 72 0 71 -62 12 c-74 14 -155 64 -198 124 -31 42 -60 123 -60 165 0 22
-3 23 -73 23 l-72 0 -12 -60z m147 -400 l-65 -65 -65 65 -65 65 65 65 64 65
66 -65 65 -64 -65 -66z"/>
<path d="M3037 4223 c-4 -21 -9 -52 -13 -70 -5 -28 -3 -33 25 -48 62 -32 88
-112 57 -174 -15 -27 -14 -28 41 -74 30 -26 59 -44 64 -41 5 3 19 24 32 47 31
60 31 194 0 252 -38 70 -131 145 -181 145 -15 0 -21 -9 -25 -37z"/>
<path d="M1750 4073 c-113 -42 -206 -77 -208 -78 -9 -8 48 -140 60 -139 13 2
410 144 417 150 8 7 -44 144 -54 143 -5 0 -102 -35 -215 -76z"/>
<path d="M931 3774 c-113 -41 -206 -76 -207 -77 -7 -8 51 -137 61 -137 10 0
308 106 407 145 15 6 15 10 -2 58 -28 80 -31 87 -44 87 -6 -1 -103 -35 -215
-76z"/>
<path d="M1405 3358 c4 -150 10 -300 14 -334 l6 -61 215 79 c118 43 222 81
232 85 15 7 14 14 -9 76 -17 46 -30 67 -42 66 -9 0 -68 -20 -131 -43 -137 -52
-127 -61 -129 119 -1 66 -4 157 -8 203 l-6 82 -75 0 -74 0 7 -272z"/>
<path d="M2130 2895 c-191 -31 -428 -110 -600 -201 -93 -50 -222 -140 -266
-185 l-28 -29 49 -50 c27 -28 54 -50 60 -50 7 0 22 11 35 25 37 40 158 119
255 167 211 106 427 167 625 177 l125 6 7 69 c4 39 5 74 2 78 -8 12 -169 8
-264 -7z"/>
<path d="M1574 1390 c-74 -112 -105 -311 -70 -450 44 -173 156 -313 318 -395
59 -29 173 -63 183 -53 2 1 6 35 10 73 l7 70 -62 18 c-123 35 -227 125 -283
245 -30 63 -32 74 -32 183 0 113 1 117 37 189 20 41 36 75 35 75 -1 1 -28 20
-59 43 l-58 42 -26 -40z"/>
<path d="M645 1353 c-18 -89 -38 -135 -80 -181 -50 -56 -103 -86 -182 -102
l-53 -12 0 -72 0 -73 49 -6 c57 -7 116 -34 165 -78 38 -33 96 -139 96 -175 0
-49 8 -54 86 -54 l74 0 0 30 c0 51 39 137 83 183 50 51 121 88 183 95 l44 5 0
72 0 73 -52 11 c-138 30 -240 135 -255 262 l-6 49 -73 0 c-72 0 -74 -1 -79
-27z m139 -298 l65 -66 -64 -64 -64 -64 -64 64 -65 64 62 64 c33 35 62 65 63
66 0 0 31 -28 67 -64z"/>
<path d="M1840 1225 c-18 -22 -40 -103 -40 -150 0 -121 99 -244 216 -269 l31
-7 6 53 c11 88 10 93 -28 111 -64 30 -91 111 -61 179 6 12 -6 26 -48 57 -30
23 -57 41 -59 41 -3 0 -10 -7 -17 -15z"/>
</g>
</svg>
