<?xml version="1.0" standalone="no"?>
<!DOCTYPE svg PUBLIC "-//W3C//DTD SVG 20010904//EN"
 "http://www.w3.org/TR/2001/REC-SVG-20010904/DTD/svg10.dtd">
<svg version="1.0" xmlns="http://www.w3.org/2000/svg"
 width="512.000000pt" height="512.000000pt" viewBox="0 0 512.000000 512.000000"
 preserveAspectRatio="xMidYMid meet">

<g transform="translate(0.000000,512.000000) scale(0.100000,-0.100000)"
fill="#000000" stroke="none">
<path d="M3712 5056 c-136 -51 -225 -146 -272 -290 -7 -22 -15 -116 -19 -209
l-6 -170 -319 271 c-212 181 -337 281 -375 298 -109 53 -269 43 -367 -23 -23
-16 -534 -447 -1135 -960 -838 -713 -1102 -943 -1127 -982 -106 -164 -118
-328 -36 -499 85 -177 288 -288 485 -266 l58 6 3 -858 c3 -855 3 -859 25 -924
23 -67 79 -166 123 -217 78 -90 203 -162 327 -188 103 -22 2865 -22 2968 0
204 43 378 200 448 405 22 65 22 69 25 923 l3 859 57 -7 c137 -16 296 41 396
142 182 184 191 480 19 664 -26 29 -195 178 -375 331 l-328 280 0 491 c0 271
-5 526 -10 566 -16 125 -83 239 -179 305 -110 76 -266 97 -389 52z m253 -170
c28 -12 65 -40 84 -61 68 -77 66 -62 69 -567 2 -252 -1 -458 -5 -458 -4 0
-123 98 -263 218 l-255 218 0 234 c0 203 2 241 18 282 21 54 101 133 151 147
61 18 148 12 201 -13z m-1328 -78 c15 -6 51 -30 78 -52 126 -102 2076 -1764
2123 -1810 71 -68 104 -141 106 -226 3 -243 -240 -397 -459 -290 -22 11 -411
337 -865 725 -486 415 -848 717 -880 734 -112 60 -248 60 -360 0 -33 -18 -388
-314 -880 -734 -454 -388 -843 -714 -865 -725 -132 -64 -283 -36 -379 70 -57
63 -79 122 -80 210 0 86 20 142 75 205 49 55 2177 1866 2218 1887 41 21 126
24 168 6z m21 -1070 c23 -13 389 -320 814 -683 424 -363 796 -680 825 -704
l53 -43 0 -853 c0 -538 -4 -872 -10 -906 -24 -125 -109 -243 -214 -296 -108
-55 -41 -53 -1565 -53 -1539 0 -1470 -2 -1575 56 -58 33 -130 104 -159 158
-54 102 -51 54 -54 1007 l-4 885 826 705 c453 387 844 714 866 727 30 15 59
22 99 22 40 0 69 -7 98 -22z"/>
<path d="M1902 2520 c-282 -74 -470 -340 -489 -690 -27 -524 363 -1036 1007
-1320 115 -51 160 -54 245 -15 394 177 673 399 850 673 172 267 233 577 166
840 -37 143 -92 244 -190 345 -69 72 -142 117 -246 153 -69 24 -96 27 -190 27
-153 0 -290 -41 -443 -131 l-52 -32 -65 40 c-194 119 -408 158 -593 110z m299
-166 c92 -27 171 -64 252 -116 93 -61 119 -63 192 -14 90 60 187 103 283 127
85 20 101 21 179 11 104 -14 171 -44 242 -108 71 -64 125 -149 158 -248 24
-72 27 -97 27 -226 1 -122 -3 -158 -22 -225 -78 -273 -284 -528 -587 -728
-105 -69 -335 -187 -366 -187 -29 0 -227 96 -334 163 -123 76 -193 131 -303
240 -232 228 -354 507 -339 777 10 185 60 314 162 416 95 96 180 132 321 133
47 1 103 -6 135 -15z"/>
</g>
</svg>
