<?xml version="1.0" standalone="no"?>
<!DOCTYPE svg PUBLIC "-//W3C//DTD SVG 20010904//EN"
 "http://www.w3.org/TR/2001/REC-SVG-20010904/DTD/svg10.dtd">
<svg version="1.0" xmlns="http://www.w3.org/2000/svg"
 width="512.000000pt" height="512.000000pt" viewBox="0 0 512.000000 512.000000"
 preserveAspectRatio="xMidYMid meet">

<g transform="translate(0.000000,512.000000) scale(0.100000,-0.100000)"
fill="#000000" stroke="none">
<path d="M1525 5102 c-138 -48 -242 -147 -306 -292 l-24 -55 -2 -1060 -2
-1060 43 -400 42 -400 -38 -42 c-165 -184 -214 -428 -137 -680 41 -132 125
-270 214 -352 38 -35 51 -42 73 -37 15 4 32 8 39 9 7 1 46 -23 88 -53 69 -51
75 -58 75 -91 0 -48 22 -67 160 -133 115 -55 367 -146 406 -146 12 0 33 9 48
21 40 32 36 77 -14 134 -122 141 -118 234 20 508 44 86 92 192 106 235 24 69
26 88 21 182 -7 161 -63 290 -175 408 l-53 55 40 446 41 446 0 748 0 747 225
0 c142 0 225 -4 225 -10 0 -5 -9 -33 -20 -62 -20 -52 -20 -77 -20 -1854 l0
-1800 26 -52 c32 -65 93 -118 158 -137 71 -21 541 -21 612 0 65 19 126 72 158
137 l26 52 0 1800 c0 1777 0 1802 -20 1854 -11 29 -20 57 -20 62 0 15 452 13
484 -1 13 -7 30 -23 35 -38 8 -18 10 -607 9 -2009 l-3 -1984 -24 -19 c-23 -19
-63 -19 -1658 -19 l-1634 0 -24 25 -25 24 0 1989 c0 1941 0 1990 19 2013 17
22 29 24 130 29 124 6 144 16 144 71 0 23 -8 39 -28 57 -27 23 -33 24 -139 20
-89 -3 -119 -8 -153 -26 -50 -26 -96 -80 -112 -131 -16 -54 -16 -4008 0 -4066
15 -53 91 -129 144 -144 58 -16 3302 -16 3356 0 50 16 105 61 132 112 l22 42
3 1478 2 1477 101 0 c91 0 106 3 150 27 84 45 133 147 114 234 -11 48 -392
878 -421 917 -14 18 -44 42 -67 55 -40 21 -54 22 -328 25 l-287 3 -88 252
c-48 139 -100 285 -115 326 -45 118 -87 151 -192 151 -69 0 -112 -20 -149 -70
-13 -19 -238 -637 -238 -657 0 -2 -114 -3 -254 -3 l-253 0 -6 163 c-4 107 -11
181 -22 217 -41 134 -135 244 -261 307 -76 37 -80 38 -203 41 -100 2 -136 -2
-176 -16z m142 -231 c57 -28 111 -84 137 -140 21 -46 21 -52 24 -1003 l3 -958
-246 0 -245 0 0 945 c0 641 3 960 11 995 13 62 80 165 117 179 43 17 151 7
199 -18z m1674 -531 c43 -124 78 -230 79 -236 0 -15 -23 -24 -60 -24 -17 0
-44 13 -70 35 -23 19 -53 35 -66 35 -14 0 -40 -15 -61 -35 -28 -27 -46 -35
-73 -35 -27 0 -45 8 -73 35 -21 20 -47 35 -61 35 -13 0 -43 -16 -66 -35 -26
-22 -53 -35 -70 -35 -36 0 -60 9 -60 23 0 8 82 250 155 455 4 10 44 12 176 10
l171 -3 79 -225z m-251 -410 c32 0 72 8 95 19 39 17 41 17 80 0 25 -11 64 -19
103 -19 l62 0 0 -1395 0 -1394 -35 -7 c-35 -6 -75 -44 -75 -70 0 -43 44 -84
90 -84 18 0 20 -7 20 -60 l0 -60 -340 0 -340 0 0 60 0 60 159 0 c145 0 161 2
185 21 33 26 36 79 6 109 -18 18 -33 20 -185 20 l-165 0 0 1400 0 1400 63 0
c38 0 77 8 102 19 39 17 41 17 80 0 23 -11 63 -19 95 -19z m1244 -338 c110
-240 114 -254 78 -294 -12 -15 -32 -18 -104 -18 l-88 0 0 277 c0 152 2 274 4
272 2 -2 52 -109 110 -237z m-2340 -1314 c-18 -183 -32 -334 -33 -335 0 -1
-27 8 -58 20 -49 18 -80 21 -198 21 -128 0 -146 -2 -210 -26 -38 -15 -71 -25
-74 -22 -5 5 -69 596 -70 647 l-1 27 338 0 337 0 -31 -332z m1236 -1658 c0
-48 -6 -95 -14 -115 l-15 -35 -190 0 -191 0 -32 29 c-32 28 -33 33 -37 115
l-3 86 241 0 241 0 0 -80z"/>
</g>
</svg>
