<?xml version="1.0" standalone="no"?>
<!DOCTYPE svg PUBLIC "-//W3C//DTD SVG 20010904//EN"
 "http://www.w3.org/TR/2001/REC-SVG-20010904/DTD/svg10.dtd">
<svg version="1.0" xmlns="http://www.w3.org/2000/svg"
 width="512.000000pt" height="512.000000pt" viewBox="0 0 512.000000 512.000000"
 preserveAspectRatio="xMidYMid meet">

<g transform="translate(0.000000,512.000000) scale(0.100000,-0.100000)"
fill="#000000" stroke="none">
<path d="M268 4846 l-268 -274 0 -1111 0 -1111 266 -270 267 -270 2019 0 2020
0 274 268 273 267 1 1115 0 1115 -273 273 -272 272 -2020 0 -2020 0 -267 -274z
m2480 -362 c247 -82 412 -310 412 -569 0 -98 -19 -177 -66 -273 -35 -72 -74
-117 -231 -265 -33 -32 -75 -84 -92 -116 -32 -60 -61 -163 -61 -218 l0 -33
-150 0 -150 0 0 44 c0 184 106 415 251 550 35 32 83 76 106 97 64 60 88 118
88 214 0 92 -24 153 -83 212 -172 172 -475 70 -508 -170 l-7 -47 -148 0 -149
0 0 46 c0 238 217 491 472 549 89 21 218 12 316 -21z m-38 -1924 l0 -150 -150
0 -150 0 0 150 0 150 150 0 150 0 0 -150z"/>
<path d="M2560 375 l0 -375 964 0 963 0 135 157 c74 87 147 172 161 189 l27
31 -160 187 -160 186 -965 0 -965 0 0 -375z"/>
</g>
</svg>
