<?xml version="1.0" standalone="no"?>
<!DOCTYPE svg PUBLIC "-//W3C//DTD SVG 20010904//EN"
 "http://www.w3.org/TR/2001/REC-SVG-20010904/DTD/svg10.dtd">
<svg version="1.0" xmlns="http://www.w3.org/2000/svg"
 width="512.000000pt" height="512.000000pt" viewBox="0 0 512.000000 512.000000"
 preserveAspectRatio="xMidYMid meet">

<g transform="translate(0.000000,512.000000) scale(0.100000,-0.100000)"
fill="#000000" stroke="none">
<path d="M2270 5099 c-933 -107 -1740 -726 -2088 -1605 -178 -448 -222 -978
-121 -1464 132 -642 527 -1224 1077 -1590 315 -210 672 -349 1057 -413 180
-29 547 -29 740 1 280 44 512 118 764 243 274 135 484 291 706 521 195 201
320 380 449 639 119 240 203 510 243 784 25 173 23 545 -5 710 -76 461 -267
895 -549 1245 -37 47 -117 135 -178 195 -411 411 -954 672 -1527 734 -113 13
-459 12 -568 0z m1576 -905 c78 -24 199 -108 247 -169 85 -112 127 -230 127
-362 0 -162 -52 -278 -194 -429 -110 -117 -210 -201 -283 -238 -142 -71 -329
-74 -477 -7 l-41 18 -46 -44 -47 -45 23 -52 c63 -144 59 -329 -11 -469 -60
-119 -286 -349 -404 -411 -153 -81 -333 -88 -486 -21 l-52 23 -45 -47 -44 -46
18 -41 c67 -148 64 -335 -7 -477 -37 -73 -120 -172 -237 -282 -150 -142 -268
-195 -430 -195 -253 0 -465 157 -537 398 -19 61 -21 90 -18 180 8 181 47 260
223 441 189 195 289 250 470 258 106 5 192 -10 265 -47 l37 -19 46 47 46 47
-20 37 c-55 106 -65 276 -24 406 33 104 95 190 236 327 176 170 258 213 429
222 107 6 180 -6 256 -41 l52 -24 45 46 46 47 -19 35 c-59 113 -66 305 -16
434 14 38 46 96 70 130 60 84 269 285 336 323 141 80 308 97 466 47z"/>
<path d="M3600 3911 c-57 -18 -91 -45 -206 -163 -107 -108 -124 -130 -138
-177 -27 -92 -19 -123 20 -80 49 54 138 67 199 29 82 -51 93 -156 25 -234 -36
-40 -26 -48 44 -35 69 13 96 33 227 166 102 103 119 125 133 172 20 67 20 84
1 147 -18 61 -73 127 -128 155 -44 23 -137 33 -177 20z"/>
<path d="M2585 2891 c-16 -4 -43 -15 -60 -24 -40 -21 -259 -244 -279 -284 -9
-17 -19 -58 -22 -90 l-6 -58 53 51 c67 64 86 74 141 74 82 0 148 -66 148 -148
0 -53 -16 -85 -69 -137 -23 -21 -41 -43 -41 -48 0 -13 88 2 135 23 50 23 269
242 289 290 18 45 31 130 19 130 -5 0 -25 -16 -44 -36 -45 -48 -79 -64 -131
-64 -82 0 -148 66 -148 148 0 54 11 75 68 135 l46 47 -34 -1 c-19 -1 -48 -4
-65 -8z"/>
<path d="M1540 1860 c-47 -16 -72 -36 -181 -147 -116 -118 -129 -134 -144
-188 -30 -101 -3 -191 77 -259 40 -35 117 -66 163 -66 12 0 46 7 76 16 47 14
69 31 172 133 133 131 153 158 166 227 13 68 6 80 -31 49 -102 -86 -250 -22
-250 109 0 45 19 93 46 115 42 35 -8 41 -94 11z"/>
</g>
</svg>
